<?xml version="1.0" encoding="UTF-8"?>
<!--
Generated by Ikonizer developed by @bitwiseviews - https://bitwiseviews.github.io/ikonizer -->
<!--
Fontawesome fonts examples ...
-->
<svg xmlns="http://www.w3.org/2000/svg" style="display: none;">
  <symbol id="arrow-alt-circle-down" viewBox="0 0 512 512">
    <path d="M256 8C119 8 8 119 8 256
             s111 248 248 248 248-111 248-248S393 8 256 8z
             m0 448c-110.5 0-200-89.5-200-200
             S145.5 56 256 56
             s200 89.5 200 200-89.5 200-200 200z
             m-32-316v116h-67
             c-10.7 0-16 12.9-8.5 20.5
             l99 99c4.7 4.7 12.3 4.7 17 0
             l99-99c7.6-7.6 2.2-20.5-8.5-20.5
             h-67V140c0-6.6-5.4-12-12-12
             h-40c-6.6 0-12 5.4-12 12z"></path>
  </symbol>
  <symbol id="address-card" viewBox="0 0 576 512">
    <path d="M528 32H48C21.5 32 0 53.5 0 80v352
             c0 26.5 21.5 48 48 48
             h480
             c26.5 0 48-21.5 48-48
             V80
             c0-26.5-21.5-48-48-48z
             m0 400H48
             V80h480v352z
             M208 256c35.3 0 64-28.7 64-64
             s-28.7-64-64-64-64 28.7-64 64 28.7 
             		64 64 64z
             m-89.6 128
             h179.2c12.4 0 22.4-8.6 22.4-19.2v-19.2
             c0-31.8-30.1-57.6-67.2-57.6-10.8 0-18.7                         
             	8-44.8 8-26.9 0-33.4-8-44.8-8-37.1 
             	0-67.2 25.8-67.2 57.6v19.2
             c0 10.6 10 19.2 22.4 19.2z
             M360 320
             h112
             c4.4 0 8-3.6 8-8
             v-16c0-4.4-3.6-8-8-8
             H360
             c-4.4 0-8 3.6-8 8
             v16c0 4.4 3.6 8 8 8z
             m0-64h112c
             4.4 0 8-3.6 8-8
             v-16c0-4.4-3.6-8-8-8
             H360c-4.4 0-8 3.6-8 8
             v16c0 4.4 3.6 8 8 8z
             m0-64h112
             c4.4 0 8-3.6 8-8
             v-16c0-4.4-3.6-8-8-8
             H360c-4.4 0-8 3.6-8 8
             v16c0 4.4 3.6 8 8 8z">
  	</path>
  </symbol>
  <symbol id="address-book" viewBox="0 0 448 512">
    <path d="M436 160c6.6 0 12-5.4 12-12v-40c0-6.6-5.4-12-12-12
             h-20V48c0-26.5-21.5-48-48-48
             H48C21.5 0 0 21.5 0 48
             v416c0 26.5 21.5 48 48 48h320c26.5 0 48-21.5 48-48
             v-48h20c6.6 0 12-5.4 12-12v-40c0-6.6-5.4-12-12-12
             h-20v-64h20c6.6 0 12-5.4 12-12v-40c0-6.6-5.4-12-12-12
             h-20v-64h20zm-68 304H48V48h320v416z
             M208 256c35.3 0 64-28.7 64-64s-28.7-64
             		-64-64-64 28.7-64 64 28.7 64 64 64z
             m-89.6 128h179.2
             c12.4 0 22.4-8.6 22.4-19.2
             v-19.2c0-31.8-30.1-57.6-67.2-57.6-10.8 0-18.7 8-44.8 
             	8-26.9 0-33.4-8-44.8-8-37.1 0-67.2 25.8-67.2 57.6
             v19.2c0 10.6 10 19.2 22.4 19.2z"></path>
  </symbol>
</svg>
